PathFileType	4	(X/Y/Z)	C:/Users/beibeiliu/ov580/test_trc\sequence.11_training_dense_right.trc
DataRate	CameraRate	NumFrames	NumMarkers	Units	OrigDataRate	OrigDataStartFrame	OrigNumFrames
120	120	18	19	mm	120	200	398
Frame#	Time	ThumbCMC			ThumbMCP			ThumbIP			ThumbTip			IndexMCP			IndexPIP			IndexTip			MiddleMCP			MiddlePIP			MiddleTip			RingMCP			RingPIP			RingTip			PinkyMCP			PinkyPIP			PinkyTip			BackHand1			BackHand2			BackHand3	
		X0	Y0	Z0	X1	Y1	Z1	X2	Y2	Z2	X3	Y3	Z3	X4	Y4	Z4	X5	Y5	Z5	X6	Y6	Z6	X7	Y7	Z7	X8	Y8	Z8	X9	Y9	Z9	X10	Y10	Z10	X11	Y11	Z11	X12	Y12	Z12	X13	Y13	Z13	X14	Y14	Z14	X15	Y15	Z15	X16	Y16	Z16	X17	Y17	Z17	X18	Y18	Z18	
199	1.65833	139.615	-2.83494	20.8044	123.556	-10.6316	-3.76993	115.469	-9.3055	-22.9093	103.82	-12.3177	-35.4674	143.032	40.1992	-26.3267	134.463	49.6402	-40.2202	133.013	62.6206	-56.3715	167.412	44.3576	-29.8949	164.863	55.391	-45.4975	171.733	73.9297	-64.4134	186.148	31.7587	-28.5669	184.954	43.0521	-48.3359	189.579	52.7764	-66.1955	203.627	15.2438	-22.5308	206.195	19.7353	-46.2769	205.715	22.0784	-63.5477	187.998	19.4763	10.315	185.505	9.11544	37.8457	157.485	20.7316	27.5719	
200	1.66667	142.075	2.75826	23.6441	129.36	-4.22518	-0.666999	120.193	-0.504378	-24.8995	110.396	-1.85001	-39.8094	148.618	47.6519	-20.6954	145.373	60.2745	-40.0746	143.362	72.2038	-55.2853	176.625	48.0623	-29.357	177.799	59.9343	-45.1357	183.443	75.7549	-63.005	192.199	33.3471	-29.3907	193.645	41.4582	-51.6299	194.847	49.4692	-72.3689	205.976	13.9504	-25.5222	200.188	15.4011	-50.1577	194.484	11.4835	-68.8644	188.806	21.4747	13.5745	192.656	7.17642	39.3323	167.368	24.475	28.16	
201	1.675	142.531	10.0264	27.8955	129.187	6.8248	-3.41482	124.346	7.85368	-22.1538	118.785	7.7479	-43.4741	156.276	55.1391	-16.9281	155.151	68.1378	-37.4409	151.888	80.4325	-51.953	183.94	49.5762	-27.4392	182.376	65.2524	-43.9253	191.745	80.1096	-64.4416	195.758	31.6376	-28.5909	196.983	39.1993	-51.1738	190.836	47.2374	-72.3288	202.617	12.6779	-26.8256	196.285	12.4789	-49.888	177.752	3.92517	-64.1844	197.448	18.2022	11.778	193.94	9.51135	37.1171	170.05	25.9369	31.7095	
202	1.68333	146.442	17.6289	26.2436	132.035	12.7372	-1.26473	127.261	15.3707	-25.9289	129.813	13.5478	-46.5525	161.751	64.406	-16.6493	160.641	73.8066	-35.3191	160.484	86.6094	-51.0455	185.199	52.5765	-23.9158	191.505	65.9159	-44.9416	195.369	79.0619	-61.3318	194.686	36.0017	-30.1809	195.004	40.8937	-54.9142	190.278	44.4052	-72.7999	200.601	11.8285	-30.9152	186.016	12.3602	-50.033	165.385	1.47401	-57.3367	199.467	18.4972	14.928	197.769	5.88747	34.3568	177.219	29.0988	31.7644	
203	1.69167	146.342	26.8722	27.699	130.245	21.6454	-0.0218698	131.289	20.4071	-25.2464	132.967	15.6484	-47.5585	168.234	67.7329	-16.8023	165.383	78.7164	-32.4706	164.794	93.7261	-50.8062	192.302	54.3841	-27.9347	195.193	64.581	-45.1425	204.598	75.2879	-64.7472	197.383	31.6944	-31.8942	194.02	39.662	-57.0224	188.56	41.3232	-77.3744	194.413	10.209	-34.7542	175.402	8.54288	-48.2394	155.04	3.84005	-47.3368	199.822	18.4317	12.8496	199.437	2.61357	37.2384	182.742	34.076	32.043	
204	1.7	150.45	29.4856	32.232	134.547	26.9238	1.76957	130.416	25.5983	-22.7591	133.029	16.2883	-42.3714	176.679	66.9632	-19.2885	171.67	79.3576	-35.2754	174.224	90.5659	-54.3741	195.571	49.2102	-28.8886	200.267	58.0855	-47.8857	207.302	71.896	-65.8489	196.076	30.3318	-34.682	193.738	32.4748	-58.8653	185.78	40.3164	-76.7837	188.678	4.8289	-32.2279	166.863	2.07151	-45.2588	146.157	7.31789	-38.3275	197.668	14.1338	11.8683	197.401	3.76815	34.8204	185.664	32.621	32.2584	
205	1.70833	154.69	35.3309	32.9337	132.333	36.2348	6.75146	130.598	30.1551	-18.0122	135.629	16.8934	-37.6802	181.188	65.1733	-20.4213	178.388	77.5817	-37.996	179.33	85.9175	-50.8267	195.579	42.9739	-27.4829	200.385	52.0566	-48.6422	211.045	62.7155	-71.9001	194.859	22.2367	-35.5242	190.41	28.549	-54.5843	183.076	34.7489	-74.184	182.342	2.38168	-28.1821	160.039	4.1978	-41.7014	138.753	13.1793	-29.6446	199.58	9.68817	10.3686	195.81	3.89624	38.3399	191.381	31.4766	31.0302	
206	1.71667	161.112	40.3149	34.8826	137.327	40.8901	7.51649	131.505	33.8622	-17.2678	132.933	18.0854	-33.4878	187.073	61.9344	-20.5255	183.817	73.563	-36.4657	186.293	83.6215	-54.7531	196.581	39.1776	-27.116	200.948	45.607	-49.4661	208.845	55.9382	-71.6839	190.43	17.4356	-30.9845	186.13	22.9491	-57.5999	180.546	28.0849	-78.0172	175.689	0.247065	-27.1555	152.477	9.2131	-37.1549	136.269	17.0079	-23.5301	196.557	10.1079	11.8731	195.461	-0.224623	34.4438	193.652	28.4764	29.3495	
207	1.725	167.122	41.7607	39.9549	143.896	44.6415	12.373	133.023	40.5783	-11.492	129.974	23.1398	-26.5971	191.5	61.2032	-19.4234	190.221	69.4472	-38.1284	190.061	79.7877	-53.8467	196.286	37.6922	-32.5263	198.981	41.3848	-49.9359	207.035	50.5671	-73.8561	185.886	15.1151	-29.2323	181.424	20.6418	-57.0309	177.416	25.1331	-72.5984	169.682	0.821721	-23.2725	144.335	8.8517	-31.5657	134.022	22.6703	-15.669	195.949	5.93284	12.3123	196.182	-5.19753	38.5782	198.918	25.7509	32.2688	
208	1.73333	175.407	44.8991	40.2462	148.729	52.4482	18.5127	138.031	44.8242	-5.80946	130.534	26.4317	-22.8697	197.271	57.2979	-17.9472	195.912	67.0935	-34.858	197.763	78.4407	-59.076	196.291	34.5408	-31.8871	197.734	35.2748	-51.8179	202.874	40.2382	-74.4981	183.654	15.4846	-28.572	178.409	19.7073	-48.9408	172.503	23.1374	-70.8287	162.09	3.40392	-23.9617	142.073	11.3469	-27.4997	134.196	28.3168	-9.67144	193.123	4.85649	13.0665	197.151	-3.68802	35.962	202.31	23.4643	26.6956	
209	1.74167	184.345	47.6592	42.2909	157.246	56.0808	19.3828	143.94	50.2946	0.778245	131.806	32.1619	-15.3603	201.703	52.7612	-17.4508	200.721	62.6757	-39.3857	202.208	70.7985	-57.0684	194.321	28.3012	-29.8733	195.522	30.9288	-53.5498	199.851	37.5395	-76.4611	181.064	14.057	-28.2465	172.426	17.3428	-54.0208	166.302	22.741	-73.3577	159.944	5.38524	-20.1038	140.583	21.8893	-21.9812	136.487	35.1123	-3.47727	190.843	-0.00619029	10.6298	194.51	-6.89393	36.6328	204.319	18.8525	26.2897	
210	1.75	192.568	42.8074	42.5112	166.348	56.9487	20.8593	149.476	52.9643	3.20103	135.574	41.9388	-6.16199	206.649	51.4469	-21.0099	205.714	58.2805	-38.6262	210.26	70.688	-60.5143	194.729	26.6989	-34.1367	197.08	33.0788	-53.6815	196.277	33.5769	-75.8032	178.968	13.2278	-24.9062	171.703	20.9322	-49.3463	165.867	26.5849	-67.4971	159.436	5.14312	-13.9403	142.385	24.9273	-18.576	142.331	39.4427	1.14887	192.707	2.59886	14.1678	198.783	-7.46915	39.5699	210.231	17.6114	27.8928	
211	1.75833	199.423	46.9865	42.7494	173.265	65.1798	27.313	154.078	63.0141	7.26752	136.052	47.0309	-4.18464	209.837	49.6371	-22.184	210.952	57.0989	-39.6838	214.397	66.3124	-61.3965	196.546	27.0263	-28.9294	194.07	30.1982	-50.9232	193.736	32.0165	-75.4272	177.888	17.1691	-26.4183	167.971	19.59	-47.1621	160.144	26.3208	-64.905	156.273	10.0627	-12.7035	144.144	27.6957	-15.4463	143.999	44.3455	8.36136	193.725	2.21336	12.7154	196.248	-8.45357	40.0285	212.219	14.713	25.2291	
212	1.76667	204.675	44.7672	41.5173	179.926	60.4631	28.7038	159.394	64.8373	10.4296	139.54	49.1881	-0.697443	212.592	44.6737	-21.2187	212.343	51.9739	-37.9698	217.141	59.1929	-61.0366	194.774	23.3346	-31.854	193.712	28.7294	-49.5117	190.267	28.4395	-74.2606	173.143	12.8591	-25.8984	166.959	21.8319	-45.3664	158.697	27.777	-62.579	153.73	12.4326	-10.1064	142.562	33.6864	-8.44768	147.076	45.9431	13.5435	193.705	-1.72773	15.0415	198.822	-7.58575	38.3221	214.596	12.8456	26.522	
213	1.775	207.626	38.3075	43.0373	182.899	60.0937	25.319	162.323	60.5443	10.2626	142.565	45.374	0.0506774	212.719	38.8352	-18.3287	213.775	46.3647	-38.9138	218.838	52.0847	-62.351	194.416	19.3304	-27.5883	191.67	22.6628	-51.0302	186.035	22.3242	-77.8401	175.933	13.2647	-24.483	165.857	18.6282	-41.3526	159.037	27.6559	-62.7354	155.704	10.7412	-7.06182	142.619	32.1188	-4.24124	150.909	45.859	12.9209	193.14	-7.16155	17.8787	198.515	-14.7719	41.8445	216.79	7.30192	29.8429	
214	1.78333	210.251	34.0758	44.0164	186.811	53.0132	29.0137	164.801	58.0463	10.2201	144.56	47.4471	2.31121	213.19	33.4583	-21.052	212.282	39.062	-40.8976	217.639	45.6444	-62.1416	194.666	16.0386	-29.3106	188.45	15.8899	-49.4013	187.917	18.9053	-75.4976	175.174	8.46766	-24.2207	164.816	14.0259	-43.3005	157.33	19.9854	-58.9678	153.018	6.95917	-6.46109	145.395	31.5446	-3.31108	153.273	43.5272	15.5622	190.119	-11.7884	13.6489	197.082	-21.5347	38.0317	213.814	0.667467	28.4928	
215	1.79167	210.833	28.8678	41.4493	187.169	49.761	25.116	168.366	53.259	11.9506	145.83	44.7262	1.4607	211.567	26.6194	-24.1556	213.98	33.6115	-43.5765	216.418	38.4629	-62.9489	194.497	11.7665	-31.5513	189.143	11.5067	-50.1742	184.18	11.0449	-76.2351	171.122	2.12386	-22.3453	164.798	11.2701	-44.0036	158.48	16.9972	-57.4725	154.106	4.72958	-6.90686	142.934	25.8142	-3.59481	151.3	41.3818	13.1589	191.45	-14.8146	16.7473	198.002	-23.4019	39.6313	217.283	-2.5666	25.3692	
216	1.8	213.363	27.145	41.8284	189.217	46.3663	27.1625	168.113	48.3441	11.1852	146.357	41.2447	1.53841	213.356	23.5942	-21.9552	212.988	29.7366	-42.366	214.801	32.8861	-63.6713	194.091	7.48888	-26.8292	186.385	8.34491	-53.3715	186.326	10.4094	-74.9251	173.388	0.663574	-23.2688	163.969	6.23879	-39.803	156.592	15.6349	-60.2409	154.002	1.95083	-4.60497	147.563	25.9564	-3.12055	154.092	38.0072	18.947	191.902	-16.9328	14.5578	195.971	-27.4117	37.8522	214.129	-7.48926	29.0966	
